HIERARCHY
ROOT Hips
{
    OFFSET 0.000000 97.120003 0.000000
    CHANNELS 6 Xposition Yposition Zposition Yrotation Xrotation Zrotation
    JOINT RightUpLeg
    {
        OFFSET -11.000000 -0.000000 0.000000
        CHANNELS 3 Yrotation Xrotation Zrotation
        JOINT RightLeg
        {
            OFFSET 0.000000 -45.062000 0.000000
            CHANNELS 3 Yrotation Xrotation Zrotation
            JOINT RightFoot
            {
                OFFSET 0.000000 -42.057999 0.000000
                CHANNELS 3 Yrotation Xrotation Zrotation
                End Site
                {
                    OFFSET 0.000000 -10.000000 15.120000
                }
            }
        }
    }
    JOINT LeftUpLeg
    {
        OFFSET 11.000000 -0.000000 0.000000
        CHANNELS 3 Yrotation Xrotation Zrotation
        JOINT LeftLeg
        {
            OFFSET 0.000000 -45.062000 0.000000
            CHANNELS 3 Yrotation Xrotation Zrotation
            JOINT LeftFoot
            {
                OFFSET 0.000000 -42.057999 0.000000
                CHANNELS 3 Yrotation Xrotation Zrotation
                End Site
                {
                    OFFSET 0.000000 -10.000000 15.120000
                }
            }
        }
    }
    JOINT Spine
    {
        OFFSET 0.000000 8.120000 0.000000
        CHANNELS 3 Yrotation Xrotation Zrotation
        JOINT Spine1
        {
            OFFSET 0.000000 17.980000 0.000000
            CHANNELS 3 Yrotation Xrotation Zrotation
            JOINT Spine2
            {
                OFFSET 0.000000 12.760000 0.000000
                CHANNELS 3 Yrotation Xrotation Zrotation
                JOINT Neck
                {
                    OFFSET 0.000000 19.139999 0.000000
                    CHANNELS 3 Yrotation Xrotation Zrotation
                    JOINT Neck1
                    {
                        OFFSET 0.000000 4.250000 0.000000
                        CHANNELS 3 Yrotation Xrotation Zrotation
                        JOINT Head
                        {
                            OFFSET 0.000000 4.250000 0.000000
                            CHANNELS 3 Yrotation Xrotation Zrotation
                            End Site
                            {
                                OFFSET 0.000000 19.120001 0.000000
                            }
                        }
                    }
                }
                JOINT RightShoulder
                {
                    OFFSET -2.900000 13.340000 0.000000
                    CHANNELS 3 Yrotation Xrotation Zrotation
                    JOINT RightArm
                    {
                        OFFSET -16.100000 0.000000 0.000000
                        CHANNELS 3 Yrotation Xrotation Zrotation
                        JOINT RightForeArm
                        {
                            OFFSET -28.000000 0.000000 0.000000
                            CHANNELS 3 Yrotation Xrotation Zrotation
                            JOINT RightHand
                            {
                                OFFSET -26.000000 0.000000 0.000000
                                CHANNELS 3 Yrotation Xrotation Zrotation
                                JOINT RightHandThumb1
                                {
                                    OFFSET -1.937000 -0.484000 2.518000
                                    CHANNELS 3 Yrotation Xrotation Zrotation
                                    JOINT RightHandThumb2
                                    {
                                        OFFSET -3.872000 0.000000 0.000000
                                        CHANNELS 3 Yrotation Xrotation Zrotation
                                        JOINT RightHandThumb3
                                        {
                                            OFFSET -2.690000 0.000000 0.000000
                                            CHANNELS 3 Yrotation Xrotation Zrotation
                                            End Site
                                            {
                                                OFFSET -2.537000 0.000000 0.000000
                                            }
                                        }
                                    }
                                }
                                JOINT RightInHandIndex
                                {
                                    OFFSET -3.389000 0.535000 2.080000
                                    CHANNELS 3 Yrotation Xrotation Zrotation
                                    JOINT RightHandIndex1
                                    {
                                        OFFSET -5.485000 -0.096000 1.051000
                                        CHANNELS 3 Yrotation Xrotation Zrotation
                                        JOINT RightHandIndex2
                                        {
                                            OFFSET -3.806000 0.000000 0.000000
                                            CHANNELS 3 Yrotation Xrotation Zrotation
                                            JOINT RightHandIndex3
                                            {
                                                OFFSET -2.158000 0.000000 0.000000
                                                CHANNELS 3 Yrotation Xrotation Zrotation
                                                End Site
                                                {
                                                    OFFSET -1.898000 0.000000 0.000000
                                                }
                                            }
                                        }
                                    }
                                }
                                JOINT RightInHandMiddle
                                {
                                    OFFSET -3.556000 0.544000 0.796000
                                    CHANNELS 3 Yrotation Xrotation Zrotation
                                    JOINT RightHandMiddle1
                                    {
                                        OFFSET -5.441000 -0.088000 0.330000
                                        CHANNELS 3 Yrotation Xrotation Zrotation
                                        JOINT RightHandMiddle2
                                        {
                                            OFFSET -4.153000 0.000000 0.000000
                                            CHANNELS 3 Yrotation Xrotation Zrotation
                                            JOINT RightHandMiddle3
                                            {
                                                OFFSET -2.603000 0.000000 0.000000
                                                CHANNELS 3 Yrotation Xrotation Zrotation
                                                End Site
                                                {
                                                    OFFSET -2.076000 0.000000 0.000000
                                                }
                                            }
                                        }
                                    }
                                }
                                JOINT RightInHandRing
                                {
                                    OFFSET -3.539000 0.566000 -0.136000
                                    CHANNELS 3 Yrotation Xrotation Zrotation
                                    JOINT RightHandRing1
                                    {
                                        OFFSET -4.873000 -0.023000 -0.504000
                                        CHANNELS 3 Yrotation Xrotation Zrotation
                                        JOINT RightHandRing2
                                        {
                                            OFFSET -3.619000 0.000000 0.000000
                                            CHANNELS 3 Yrotation Xrotation Zrotation
                                            JOINT RightHandRing3
                                            {
                                                OFFSET -2.511000 0.000000 0.000000
                                                CHANNELS 3 Yrotation Xrotation Zrotation
                                                End Site
                                                {
                                                    OFFSET -1.952000 0.000000 0.000000
                                                }
                                            }
                                        }
                                    }
                                }
                                JOINT RightInHandPinky
                                {
                                    OFFSET -3.324000 0.494000 -1.264000
                                    CHANNELS 3 Yrotation Xrotation Zrotation
                                    JOINT RightHandPinky1
                                    {
                                        OFFSET -4.354000 -0.023000 -1.147000
                                        CHANNELS 3 Yrotation Xrotation Zrotation
                                        JOINT RightHandPinky2
                                        {
                                            OFFSET -2.898000 0.000000 0.000000
                                            CHANNELS 3 Yrotation Xrotation Zrotation
                                            JOINT RightHandPinky3
                                            {
                                                OFFSET -1.831000 0.000000 0.000000
                                                CHANNELS 3 Yrotation Xrotation Zrotation
                                                End Site
                                                {
                                                    OFFSET -1.730000 0.000000 0.000000
                                                }
                                            }
                                        }
                                    }
                                }
                            }
                        }
                    }
                }
                JOINT LeftShoulder
                {
                    OFFSET 2.900000 13.340000 0.000000
                    CHANNELS 3 Yrotation Xrotation Zrotation
                    JOINT LeftArm
                    {
                        OFFSET 16.100000 0.000000 0.000000
                        CHANNELS 3 Yrotation Xrotation Zrotation
                        JOINT LeftForeArm
                        {
                            OFFSET 28.000000 0.000000 0.000000
                            CHANNELS 3 Yrotation Xrotation Zrotation
                            JOINT LeftHand
                            {
                                OFFSET 26.000000 0.000000 0.000000
                                CHANNELS 3 Yrotation Xrotation Zrotation
                                JOINT LeftHandThumb1
                                {
                                    OFFSET 1.937000 -0.484000 2.518000
                                    CHANNELS 3 Yrotation Xrotation Zrotation
                                    JOINT LeftHandThumb2
                                    {
                                        OFFSET 3.872000 0.000000 0.000000
                                        CHANNELS 3 Yrotation Xrotation Zrotation
                                        JOINT LeftHandThumb3
                                        {
                                            OFFSET 2.690000 0.000000 0.000000
                                            CHANNELS 3 Yrotation Xrotation Zrotation
                                            End Site
                                            {
                                                OFFSET 2.537000 0.000000 0.000000
                                            }
                                        }
                                    }
                                }
                                JOINT LeftInHandIndex
                                {
                                    OFFSET 3.389000 0.535000 2.080000
                                    CHANNELS 3 Yrotation Xrotation Zrotation
                                    JOINT LeftHandIndex1
                                    {
                                        OFFSET 5.485000 -0.096000 1.051000
                                        CHANNELS 3 Yrotation Xrotation Zrotation
                                        JOINT LeftHandIndex2
                                        {
                                            OFFSET 3.806000 0.000000 0.000000
                                            CHANNELS 3 Yrotation Xrotation Zrotation
                                            JOINT LeftHandIndex3
                                            {
                                                OFFSET 2.158000 0.000000 0.000000
                                                CHANNELS 3 Yrotation Xrotation Zrotation
                                                End Site
                                                {
                                                    OFFSET 1.898000 0.000000 0.000000
                                                }
                                            }
                                        }
                                    }
                                }
                                JOINT LeftInHandMiddle
                                {
                                    OFFSET 3.556000 0.544000 0.796000
                                    CHANNELS 3 Yrotation Xrotation Zrotation
                                    JOINT LeftHandMiddle1
                                    {
                                        OFFSET 5.441000 -0.088000 0.330000
                                        CHANNELS 3 Yrotation Xrotation Zrotation
                                        JOINT LeftHandMiddle2
                                        {
                                            OFFSET 4.153000 0.000000 0.000000
                                            CHANNELS 3 Yrotation Xrotation Zrotation
                                            JOINT LeftHandMiddle3
                                            {
                                                OFFSET 2.603000 0.000000 0.000000
                                                CHANNELS 3 Yrotation Xrotation Zrotation
                                                End Site
                                                {
                                                    OFFSET 2.076000 0.000000 0.000000
                                                }
                                            }
                                        }
                                    }
                                }
                                JOINT LeftInHandRing
                                {
                                    OFFSET 3.539000 0.566000 -0.136000
                                    CHANNELS 3 Yrotation Xrotation Zrotation
                                    JOINT LeftHandRing1
                                    {
                                        OFFSET 4.873000 -0.023000 -0.504000
                                        CHANNELS 3 Yrotation Xrotation Zrotation
                                        JOINT LeftHandRing2
                                        {
                                            OFFSET 3.619000 0.000000 0.000000
                                            CHANNELS 3 Yrotation Xrotation Zrotation
                                            JOINT LeftHandRing3
                                            {
                                                OFFSET 2.511000 0.000000 0.000000
                                                CHANNELS 3 Yrotation Xrotation Zrotation
                                                End Site
                                                {
                                                    OFFSET 1.952000 0.000000 0.000000
                                                }
                                            }
                                        }
                                    }
                                }
                                JOINT LeftInHandPinky
                                {
                                    OFFSET 3.324000 0.494000 -1.264000
                                    CHANNELS 3 Yrotation Xrotation Zrotation
                                    JOINT LeftHandPinky1
                                    {
                                        OFFSET 4.354000 -0.023000 -1.147000
                                        CHANNELS 3 Yrotation Xrotation Zrotation
                                        JOINT LeftHandPinky2
                                        {
                                            OFFSET 2.898000 0.000000 0.000000
                                            CHANNELS 3 Yrotation Xrotation Zrotation
                                            JOINT LeftHandPinky3
                                            {
                                                OFFSET 1.831000 0.000000 0.000000
                                                CHANNELS 3 Yrotation Xrotation Zrotation
                                                End Site
                                                {
                                                    OFFSET 1.730000 0.000000 0.000000
                                                }
                                            }
                                        }
                                    }
                                }
                            }
                        }
                    }
                }
            }
        }
    }
}
MOTION
Frames: 4
Frame Time: 0.011111
-25.418741 148.738159 124.264610 86.219681 20.371088 -6.488725 12.885691 -41.660862 7.943698 114.352486 116.275238 123.039413 177.055710 -173.293915 -170.039383 10.834853 -50.039188 6.519697 8.367814 42.519058 -7.437564 0.604363 -11.562677 5.756946 179.571991 157.506454 177.292831 179.534500 157.960922 175.564468 0.669756 15.491472 -6.433580 179.999649 -175.597260 -179.660034 0.000330 -5.129150 0.353190 173.058426 -176.268280 -179.332764 7.870444 -8.560363 1.816206 23.901899 -20.495632 74.896736 13.179388 14.129513 -14.173435 2.881517 9.222749 -40.269779 57.194901 39.329308 13.058268 179.999634 -179.999649 -173.208527 179.999802 -179.999725 -175.476883 0.000000 -0.000003 0.000000 15.001621 0.003990 16.268812 0.000334 0.003507 13.310847 179.999664 179.997574 -170.682419 0.000000 -0.000003 0.000000 0.004089 0.006230 17.666479 0.001937 0.007183 17.666479 179.999756 179.995041 -168.234146 0.000000 -0.000003 0.000000 170.005646 179.992935 -165.182159 0.003585 0.008312 14.817816 0.000845 0.005960 9.868660 0.000000 -0.000003 0.000000 160.003906 179.995773 -169.541550 0.004559 0.007321 15.687655 0.001570 0.005539 10.447995 170.303848 -168.946091 -172.540817 148.284332 -158.373245 134.221481 176.942734 171.910858 -173.227142 9.174494 7.211234 12.915132 120.624199 145.009598 168.404907 0.001103 0.001435 -6.270982 0.000840 0.000870 -4.176476 0.000000 -0.000000 0.000000 165.003632 179.991638 155.228958 0.005598 0.004926 -20.267220 0.004879 0.001845 -14.187031 0.000000 -0.000000 0.000000 0.003591 0.008369 -29.893843 0.007327 0.005409 -29.893829 0.006036 0.000655 -19.909306 0.000000 -0.000000 0.000000 10.002125 0.005223 -25.214172 0.004160 0.003790 -25.214151 0.003584 0.001092 -16.792620 0.000000 -0.000000 0.000000 20.001883 0.005068 -23.695356 0.005692 0.005783 -35.543053 0.005329 0.000883 -23.671671
-25.023417 149.023682 124.633255 86.741447 19.728785 -6.325392 13.429681 -41.839207 7.481313 113.951225 116.023933 122.005280 177.551071 -173.002701 -170.549393 10.934906 -48.779499 6.459169 7.679038 41.621395 -7.504704 0.740896 -11.264968 5.434762 179.584351 157.624985 177.315201 179.546829 158.075806 175.614822 0.683642 15.424741 -6.347284 179.999680 -175.801224 -179.638763 0.000287 -4.891921 0.375058 172.990051 -176.444412 -179.337006 7.617271 -8.385785 1.922638 22.605143 -19.950159 76.001198 11.680823 14.683950 -13.883359 3.319889 9.173301 -40.157829 57.531986 39.561058 13.821926 179.999527 -179.999390 -173.081894 179.999741 -179.999557 -175.392517 180.000000 180.000000 -179.999985 15.001583 0.003100 16.598169 0.000509 0.002806 13.580313 179.999878 179.998016 -170.493759 180.000000 180.000000 -179.999985 0.003748 0.004593 18.200405 0.002097 0.005544 18.200365 0.000151 0.003944 12.121455 180.000000 180.000000 -179.999985 170.004913 179.995041 -164.555847 0.003365 0.006109 15.444168 0.001053 0.004534 10.285816 180.000000 180.000000 -179.999985 160.003845 179.996613 -169.199570 0.004675 0.006092 16.200630 0.001826 0.004774 10.789614 170.522018 -169.127884 -172.574554 149.242645 -159.174271 133.710648 177.107956 171.962372 -173.202652 9.201175 7.115565 12.694713 120.284416 145.256149 168.022751 0.001209 0.002148 -6.357283 0.000966 0.001329 -4.233949 0.000000 -0.000000 0.000000 165.003204 179.993271 154.666214 0.004746 0.003833 -20.727650 0.004065 0.001314 -14.509354 0.000000 -0.000000 0.000000 0.002967 0.006035 -30.493746 0.005631 0.003668 -30.493763 0.004477 0.000167 -20.308834 0.000000 -0.000000 0.000000 10.003217 0.006620 -25.441860 0.005776 0.004567 -25.441837 0.004784 0.001068 -16.944267 0.000000 -0.000000 0.000000 20.001476 0.003227 -24.079464 0.004028 0.003486 -36.119183 0.003541 0.000301 -24.055393
-24.662966 149.307968 124.918793 87.274071 19.117033 -6.155444 13.571728 -41.985058 7.087916 114.568916 115.638794 121.353081 177.796219 -172.766541 -170.852539 10.018806 -47.511566 6.838522 8.154126 40.713264 -6.993645 0.723225 -10.931306 5.086899 179.578735 157.725632 177.436584 179.546509 158.172989 175.834839 0.520611 15.386367 -6.065065 179.999466 -175.987656 -179.776443 0.000041 -4.675102 0.232429 173.038757 -176.591843 -179.444550 7.543558 -8.204878 1.521745 21.378208 -19.423897 76.993385 10.145480 15.279524 -13.657852 3.787893 9.138467 -39.960991 57.962521 39.665493 14.604300 179.999390 -179.999207 -172.959991 179.999649 -179.999420 -175.311401 0.000000 -0.000000 0.000000 15.001915 0.002759 16.885962 0.000838 0.002621 13.815792 0.000125 0.001922 9.671048 0.000000 -0.000000 0.000000 0.003215 0.002995 18.734404 0.002056 0.003884 18.734442 0.000451 0.002900 12.477148 0.000000 -0.000000 0.000000 170.004395 179.996597 -163.996704 0.003222 0.004499 16.003319 0.001219 0.003474 10.658194 0.000000 -0.000000 0.000000 160.004028 179.997238 -168.862457 0.005092 0.005269 16.706314 0.002194 0.004346 11.126414 170.906616 -169.140671 -173.093918 150.427139 -159.642944 132.975693 177.323944 171.820068 -173.104736 9.265291 7.162514 12.700517 120.217461 145.419540 167.787018 0.001113 0.002442 -6.497289 0.000925 0.001534 -4.327177 0.000000 -0.000000 0.000000 165.001694 179.996811 154.056793 0.002389 0.001738 -21.226267 0.002000 0.000519 -14.858377 0.000000 -0.000000 0.000000 0.002056 0.003646 -30.999233 0.003658 0.002039 -30.999212 0.002786 -0.000090 -20.645489 0.000000 -0.000000 0.000000 10.001222 0.002145 -26.090998 0.002048 0.001389 -26.090992 0.001630 0.000232 -17.376602 0.000000 -0.000000 0.000000 20.000931 0.001696 -24.362000 0.002349 0.001743 -36.543064 0.001940 -0.000011 -24.337660
-24.311047 149.584534 125.169418 87.813553 18.534189 -5.981499 15.466846 -42.127914 5.989576 114.276108 115.818863 120.808754 177.871216 -172.649994 -170.997818 8.932471 -46.258816 7.260142 8.889663 39.800663 -6.358860 0.639616 -10.575990 4.728088 179.592117 157.859634 177.438522 179.566772 158.303101 175.850494 0.595805 15.307332 -6.010383 179.999481 -176.205734 -179.698227 179.999985 -175.578705 -179.686722 172.888611 -176.785355 -179.411179 7.304080 -7.983664 1.749341 20.348356 -18.861002 77.734261 8.668516 15.749578 -13.387704 4.250162 9.170177 -39.719471 58.357445 39.574871 15.274197 179.999329 -179.999161 -172.817276 179.999619 -179.999390 -175.216324 0.000000 0.000000 -0.000003 15.002367 0.002431 17.226959 0.001229 0.002481 14.094792 0.000407 0.001898 9.866344 0.000000 0.000000 -0.000003 0.002735 0.001896 19.203709 0.001939 0.002701 19.203724 0.000625 0.002124 12.789670 0.000000 0.000000 -0.000003 170.003860 179.997726 -163.480453 0.003031 0.003290 16.519545 0.001303 0.002681 11.002017 0.000000 0.000000 -0.000003 160.003906 179.997971 -168.468796 0.005062 0.004187 17.296803 0.002373 0.003684 11.519652 171.070984 -169.350372 -172.999695 151.142853 -160.558105 132.773697 177.421799 172.169876 -173.272644 9.371215 6.975078 12.730865 120.242096 145.508896 167.535004 0.000881 0.002316 -6.671422 0.000764 0.001460 -4.443179 0.000000 -0.000000 0.000000 164.999664 -179.999451 153.643585 179.999557 -179.999710 158.435654 179.999634 -179.999924 164.904953 0.000000 -0.000000 0.000000 0.001284 0.002003 -31.337271 0.002138 0.001029 -31.337267 0.001575 -0.000161 -20.870628 0.000000 -0.000000 0.000000 10.001125 0.001722 -26.262890 0.001770 0.001041 -26.262890 0.001366 0.000093 -17.491085 0.000000 -0.000000 0.000000 20.000475 0.000749 -24.529259 0.001125 0.000716 -36.793911 0.000885 -0.000059 -24.504744
